<mxfile host="65bd71144e">
    <diagram id="hsnAsNoOVvrT31XjlBDN" name="Page-1">
        <mxGraphModel dx="855" dy="1378" grid="1" gridSize="10" guides="1" tooltips="1" connect="1" arrows="1" fold="1" page="0" pageScale="1" pageWidth="850" pageHeight="1100" math="0" shadow="0">
            <root>
                <mxCell id="0"/>
                <mxCell id="1" parent="0"/>
                <mxCell id="2" value="" style="edgeStyle=none;html=1;exitX=0.5;exitY=0;exitDx=0;exitDy=0;" parent="1" source="31" edge="1">
                    <mxGeometry relative="1" as="geometry">
                        <mxPoint x="420" y="-180" as="targetPoint"/>
                        <Array as="points">
                            <mxPoint x="380" y="-180"/>
                        </Array>
                    </mxGeometry>
                </mxCell>
                <mxCell id="4" value="&lt;span style=&quot;color: rgba(0, 0, 0, 0); font-family: monospace; font-size: 0px; text-align: start;&quot;&gt;%3CmxGraphModel%3E%3Croot%3E%3CmxCell%20id%3D%220%22%2F%3E%3CmxCell%20id%3D%221%22%20parent%3D%220%22%2F%3E%3CmxCell%20id%3D%222%22%20value%3D%22%2F%20if%20t%20%3D%3D%20student%22%20style%3D%22text%3Bhtml%3D1%3Balign%3Dcenter%3BverticalAlign%3Dmiddle%3Bresizable%3D0%3Bpoints%3D%5B%5D%3Bautosize%3D1%3BstrokeColor%3Dnone%3BfillColor%3Dnone%3B%22%20vertex%3D%221%22%20parent%3D%221%22%3E%3CmxGeometry%20x%3D%22280%22%20y%3D%22105%22%20width%3D%22100%22%20height%3D%2230%22%20as%3D%22geometry%22%2F%3E%3C%2FmxCell%3E%3C%2Froot%3E%3C%2FmxGraphModel%3E&lt;/span&gt;" style="text;html=1;align=center;verticalAlign=middle;resizable=0;points=[];autosize=1;strokeColor=none;fillColor=none;" parent="1" vertex="1">
                    <mxGeometry x="320" y="-170" width="20" height="30" as="geometry"/>
                </mxCell>
                <mxCell id="6" style="edgeStyle=none;html=1;entryX=0;entryY=0.5;entryDx=0;entryDy=0;fontColor=#FFFFFF;" parent="1" source="7" target="3" edge="1">
                    <mxGeometry relative="1" as="geometry">
                        <mxPoint x="80" y="55" as="targetPoint"/>
                    </mxGeometry>
                </mxCell>
                <mxCell id="7" value="" style="ellipse;whiteSpace=wrap;html=1;aspect=fixed;fillColor=#000000;" parent="1" vertex="1">
                    <mxGeometry x="100" y="-5" width="10" height="10" as="geometry"/>
                </mxCell>
                <mxCell id="15" style="edgeStyle=none;html=1;exitX=0.5;exitY=1;exitDx=0;exitDy=0;" parent="1" source="31" target="14" edge="1">
                    <mxGeometry relative="1" as="geometry">
                        <mxPoint x="255.00000000000014" y="95.00000000000004" as="targetPoint"/>
                        <mxPoint x="440" y="140" as="sourcePoint"/>
                        <Array as="points">
                            <mxPoint x="383" y="130"/>
                        </Array>
                    </mxGeometry>
                </mxCell>
                <mxCell id="17" value="S3" style="rounded=1;whiteSpace=wrap;html=1;verticalAlign=top;" vertex="1" parent="1">
                    <mxGeometry x="920" y="-40" width="180" height="80" as="geometry"/>
                </mxCell>
                <mxCell id="18" value="entry / unlocked;green;welcome&lt;br&gt;entry / start_timer(t, 3000)" style="text;html=1;align=left;verticalAlign=middle;resizable=0;points=[];autosize=1;strokeColor=none;fillColor=none;" vertex="1" parent="1">
                    <mxGeometry x="930" y="-20" width="190" height="40" as="geometry"/>
                </mxCell>
                <mxCell id="25" value="[employee]" style="text;html=1;align=center;verticalAlign=middle;resizable=0;points=[];autosize=1;strokeColor=none;fillColor=none;" parent="1" vertex="1">
                    <mxGeometry x="385" y="-120" width="80" height="30" as="geometry"/>
                </mxCell>
                <mxCell id="27" value="S3" style="rounded=1;whiteSpace=wrap;html=1;verticalAlign=top;" parent="1" vertex="1">
                    <mxGeometry x="670" y="99" width="180" height="80" as="geometry"/>
                </mxCell>
                <mxCell id="31" value="" style="rhombus;whiteSpace=wrap;html=1;labelBackgroundColor=#FFFFFF;" parent="1" vertex="1">
                    <mxGeometry x="375" y="-7.5" width="15" height="15" as="geometry"/>
                </mxCell>
                <mxCell id="33" value="" style="endArrow=classic;html=1;exitX=1;exitY=0.5;exitDx=0;exitDy=0;" parent="1" source="3" edge="1">
                    <mxGeometry width="50" height="50" relative="1" as="geometry">
                        <mxPoint x="460" y="30" as="sourcePoint"/>
                        <mxPoint x="370" as="targetPoint"/>
                    </mxGeometry>
                </mxCell>
                <mxCell id="34" value="t /" style="text;html=1;align=center;verticalAlign=middle;resizable=0;points=[];autosize=1;strokeColor=none;fillColor=none;" parent="1" vertex="1">
                    <mxGeometry x="325" y="-25" width="30" height="30" as="geometry"/>
                </mxCell>
                <mxCell id="35" value="[else]&amp;nbsp;" style="text;html=1;align=center;verticalAlign=middle;resizable=0;points=[];autosize=1;strokeColor=none;fillColor=none;" parent="1" vertex="1">
                    <mxGeometry x="425" y="45" width="60" height="30" as="geometry"/>
                </mxCell>
                <mxCell id="36" value="entry / publish(message)" style="text;html=1;strokeColor=none;fillColor=none;align=center;verticalAlign=middle;whiteSpace=wrap;rounded=0;labelBackgroundColor=none;" parent="1" vertex="1">
                    <mxGeometry x="674" y="122" width="155" height="30" as="geometry"/>
                </mxCell>
                <mxCell id="38" value="S3" style="rounded=1;whiteSpace=wrap;html=1;verticalAlign=top;" parent="1" vertex="1">
                    <mxGeometry x="540" y="240" width="180" height="80" as="geometry"/>
                </mxCell>
                <mxCell id="39" value="entry / waiting" style="text;html=1;strokeColor=none;fillColor=none;align=center;verticalAlign=middle;whiteSpace=wrap;rounded=0;labelBackgroundColor=none;" parent="1" vertex="1">
                    <mxGeometry x="550" y="260" width="160" height="30" as="geometry"/>
                </mxCell>
                <mxCell id="41" value="" style="group" vertex="1" connectable="0" parent="1">
                    <mxGeometry x="160" y="-40" width="160" height="80" as="geometry"/>
                </mxCell>
                <mxCell id="3" value="idle" style="rounded=1;whiteSpace=wrap;html=1;verticalAlign=top;" parent="41" vertex="1">
                    <mxGeometry width="160" height="80" as="geometry"/>
                </mxCell>
                <mxCell id="5" value="entry / show_credentials" style="text;html=1;align=left;verticalAlign=middle;resizable=0;points=[];autosize=1;strokeColor=none;fillColor=none;" parent="41" vertex="1">
                    <mxGeometry x="3" y="20" width="150" height="30" as="geometry"/>
                </mxCell>
                <mxCell id="42" value="" style="group" vertex="1" connectable="0" parent="1">
                    <mxGeometry x="880" y="-280" width="160" height="80" as="geometry"/>
                </mxCell>
                <mxCell id="43" value="idle" style="rounded=1;whiteSpace=wrap;html=1;verticalAlign=top;" vertex="1" parent="42">
                    <mxGeometry width="160" height="80" as="geometry"/>
                </mxCell>
                <mxCell id="44" value="entry / show_credentials&lt;br&gt;exit / Subscribe topics" style="text;html=1;align=left;verticalAlign=middle;resizable=0;points=[];autosize=1;strokeColor=none;fillColor=none;" vertex="1" parent="42">
                    <mxGeometry x="3" y="15" width="150" height="40" as="geometry"/>
                </mxCell>
                <mxCell id="45" value="" style="group" vertex="1" connectable="0" parent="1">
                    <mxGeometry x="425" y="-220" width="185" height="80" as="geometry"/>
                </mxCell>
                <mxCell id="8" value="S1" style="rounded=1;whiteSpace=wrap;html=1;verticalAlign=top;" parent="45" vertex="1">
                    <mxGeometry width="160" height="80" as="geometry"/>
                </mxCell>
                <mxCell id="26" value="&lt;span style=&quot;&quot;&gt;entry / subscribe_to_topics&lt;br&gt;entry / show_gui&lt;br&gt;&lt;/span&gt;" style="text;html=1;strokeColor=none;fillColor=none;align=left;verticalAlign=middle;whiteSpace=wrap;rounded=0;" parent="45" vertex="1">
                    <mxGeometry x="5" y="25" width="180" height="30" as="geometry"/>
                </mxCell>
                <mxCell id="46" value="" style="group" vertex="1" connectable="0" parent="1">
                    <mxGeometry x="1120" y="-280" width="185" height="80" as="geometry"/>
                </mxCell>
                <mxCell id="47" value="S1" style="rounded=1;whiteSpace=wrap;html=1;verticalAlign=top;" vertex="1" parent="46">
                    <mxGeometry width="160" height="80" as="geometry"/>
                </mxCell>
                <mxCell id="48" value="&lt;span style=&quot;&quot;&gt;entry / show_gui_home&lt;br&gt;&lt;/span&gt;" style="text;html=1;strokeColor=none;fillColor=none;align=left;verticalAlign=middle;whiteSpace=wrap;rounded=0;" vertex="1" parent="46">
                    <mxGeometry x="5" y="25" width="155" height="30" as="geometry"/>
                </mxCell>
                <mxCell id="50" value="" style="group" vertex="1" connectable="0" parent="1">
                    <mxGeometry x="425" y="95" width="165" height="80" as="geometry"/>
                </mxCell>
                <mxCell id="9" value="S2" style="rounded=1;whiteSpace=wrap;html=1;verticalAlign=top;" parent="50" vertex="1">
                    <mxGeometry width="160" height="80" as="geometry"/>
                </mxCell>
                <mxCell id="14" value="entry / subscribe_to_topic&lt;br&gt;entry / show_gui" style="text;html=1;align=left;verticalAlign=middle;resizable=0;points=[];autosize=1;strokeColor=none;fillColor=none;" parent="50" vertex="1">
                    <mxGeometry x="5" y="20" width="160" height="40" as="geometry"/>
                </mxCell>
                <mxCell id="68" value="" style="group" vertex="1" connectable="0" parent="1">
                    <mxGeometry x="1400" y="-290" width="210" height="100" as="geometry"/>
                </mxCell>
                <mxCell id="69" value="S3" style="rounded=1;whiteSpace=wrap;html=1;verticalAlign=top;" vertex="1" parent="68">
                    <mxGeometry width="181.6216216216216" height="100" as="geometry"/>
                </mxCell>
                <mxCell id="70" value="entry / show_gui_tasks&lt;br&gt;new task / add task&lt;br&gt;edit task / edit task&lt;br&gt;complete task / complete task&lt;br&gt;exit_unsubscribe" style="text;html=1;align=left;verticalAlign=middle;resizable=0;points=[];autosize=1;strokeColor=none;fillColor=none;" vertex="1" parent="68">
                    <mxGeometry x="5.675675675675675" y="10" width="180" height="90" as="geometry"/>
                </mxCell>
                <mxCell id="75" value="" style="group" vertex="1" connectable="0" parent="1">
                    <mxGeometry x="1400" y="-400" width="260" height="90" as="geometry"/>
                </mxCell>
                <mxCell id="72" value="S2" style="rounded=1;whiteSpace=wrap;html=1;verticalAlign=top;" vertex="1" parent="75">
                    <mxGeometry width="193.4883720930233" height="90" as="geometry"/>
                </mxCell>
                <mxCell id="73" value="entry / show_gui_messaging&lt;br&gt;Message / Send message&lt;br&gt;MQTT_recieve / recieve message&amp;nbsp;&lt;br&gt;exit / unsubscribe" style="text;html=1;align=left;verticalAlign=middle;resizable=0;points=[];autosize=1;strokeColor=none;fillColor=none;" vertex="1" parent="75">
                    <mxGeometry x="-0.0034883720930221074" y="13.5" width="210" height="70" as="geometry"/>
                </mxCell>
                <mxCell id="76" style="edgeStyle=none;html=1;entryX=0;entryY=0.5;entryDx=0;entryDy=0;" edge="1" parent="1" source="43" target="47">
                    <mxGeometry relative="1" as="geometry"/>
                </mxCell>
                <mxCell id="77" style="edgeStyle=none;html=1;entryX=0;entryY=0.5;entryDx=0;entryDy=0;" edge="1" parent="1" source="47" target="69">
                    <mxGeometry relative="1" as="geometry"/>
                </mxCell>
                <mxCell id="78" style="edgeStyle=none;html=1;entryX=0;entryY=0.5;entryDx=0;entryDy=0;" edge="1" parent="1" source="47" target="72">
                    <mxGeometry relative="1" as="geometry">
                        <Array as="points">
                            <mxPoint x="1320" y="-240"/>
                            <mxPoint x="1320" y="-355"/>
                        </Array>
                    </mxGeometry>
                </mxCell>
                <mxCell id="79" value="Messaging /" style="text;html=1;align=center;verticalAlign=middle;resizable=0;points=[];autosize=1;strokeColor=none;fillColor=none;" vertex="1" parent="1">
                    <mxGeometry x="1300" y="-380" width="90" height="30" as="geometry"/>
                </mxCell>
                <mxCell id="80" value="Tasks /" style="text;html=1;align=center;verticalAlign=middle;resizable=0;points=[];autosize=1;strokeColor=none;fillColor=none;" vertex="1" parent="1">
                    <mxGeometry x="1330" y="-260" width="60" height="30" as="geometry"/>
                </mxCell>
                <mxCell id="82" style="edgeStyle=none;html=1;entryX=0.5;entryY=0;entryDx=0;entryDy=0;" edge="1" parent="1" source="72" target="47">
                    <mxGeometry relative="1" as="geometry">
                        <Array as="points">
                            <mxPoint x="1497" y="-440"/>
                            <mxPoint x="1200" y="-440"/>
                        </Array>
                    </mxGeometry>
                </mxCell>
                <mxCell id="83" value="Home /" style="text;html=1;align=center;verticalAlign=middle;resizable=0;points=[];autosize=1;strokeColor=none;fillColor=none;" vertex="1" parent="1">
                    <mxGeometry x="1280" y="-470" width="60" height="30" as="geometry"/>
                </mxCell>
                <mxCell id="84" style="edgeStyle=none;html=1;entryX=0.5;entryY=1;entryDx=0;entryDy=0;" edge="1" parent="1" source="69" target="47">
                    <mxGeometry relative="1" as="geometry">
                        <Array as="points">
                            <mxPoint x="1490" y="-120"/>
                            <mxPoint x="1200" y="-120"/>
                        </Array>
                    </mxGeometry>
                </mxCell>
                <mxCell id="85" value="Home /" style="text;html=1;align=center;verticalAlign=middle;resizable=0;points=[];autosize=1;strokeColor=none;fillColor=none;" vertex="1" parent="1">
                    <mxGeometry x="1290" y="-150" width="60" height="30" as="geometry"/>
                </mxCell>
            </root>
        </mxGraphModel>
    </diagram>
</mxfile>